<svg xmlns="http://www.w3.org/2000/svg" width="832" height="286" viewBox="0 0 832 286" role="img" aria-label="Estatisticas do GitHub de RaphaelOkuyama">
<title>Estatisticas do GitHub de RaphaelOkuyama</title>
<style>text{font-family:'JetBrains Mono','SFMono-Regular',ui-monospace,Consolas,'Liberation Mono',Menlo,monospace}</style>

  <rect x="10" y="10" width="372" height="266" rx="10" fill="#010409" stroke="#30363d"/>
  <path d="M10 20a10 10 0 0 1 10-10h352a10 10 0 0 1 10 10v20H10z" fill="#161b22"/>
  <line x1="10" y1="40" x2="382" y2="40" stroke="#30363d"/>
  <circle cx="26" cy="25" r="4.5" fill="#ff5f56"/>
  <circle cx="42" cy="25" r="4.5" fill="#ffbd2e"/>
  <circle cx="58" cy="25" r="4.5" fill="#27c93f"/>
  <text x="196" y="29" font-size="11" fill="#8b949e" text-anchor="middle">~/stats.sh</text>
  <text x="28" y="64" font-size="12.5" fill="#8b949e">Contribuições (últ. ano)</text><text x="364" y="64" font-size="13" font-weight="bold" text-anchor="end" fill="#e6edf3">1.105</text><text x="28" y="88" font-size="12.5" fill="#8b949e">Commits (últ. ano)</text><text x="364" y="88" font-size="13" font-weight="bold" text-anchor="end" fill="#e6edf3">339</text><text x="28" y="112" font-size="12.5" fill="#8b949e">Commits em repos privados</text><text x="364" y="112" font-size="13" font-weight="bold" text-anchor="end" fill="#e6edf3">757</text><text x="28" y="136" font-size="12.5" fill="#8b949e">Pull requests</text><text x="364" y="136" font-size="13" font-weight="bold" text-anchor="end" fill="#e6edf3">1</text><text x="28" y="160" font-size="12.5" fill="#8b949e">Repositórios próprios</text><text x="364" y="160" font-size="13" font-weight="bold" text-anchor="end" fill="#e6edf3">34</text><text x="28" y="184" font-size="12.5" fill="#8b949e">Estrelas recebidas</text><text x="364" y="184" font-size="13" font-weight="bold" text-anchor="end" fill="#e6edf3">3</text>

  <rect x="398" y="10" width="424" height="266" rx="10" fill="#010409" stroke="#30363d"/>
  <path d="M398 20a10 10 0 0 1 10-10h404a10 10 0 0 1 10 10v20H398z" fill="#161b22"/>
  <line x1="398" y1="40" x2="822" y2="40" stroke="#30363d"/>
  <circle cx="414" cy="25" r="4.5" fill="#ff5f56"/>
  <circle cx="430" cy="25" r="4.5" fill="#ffbd2e"/>
  <circle cx="446" cy="25" r="4.5" fill="#27c93f"/>
  <text x="610" y="29" font-size="11" fill="#8b949e" text-anchor="middle">~/langs.sh --top</text>
  <rect x="416" y="92" width="388" height="10" rx="5" fill="#21262d"/><rect x="416.00" y="92" width="175.85" height="10" rx="2" fill="#f1e05a"><title>JavaScript 45.6%</title></rect><rect x="592.85" y="92" width="156.27" height="10" rx="2" fill="#3178c6"><title>TypeScript 40.5%</title></rect><rect x="750.12" y="92" width="36.12" height="10" rx="2" fill="#663399"><title>CSS 9.6%</title></rect><rect x="787.24" y="92" width="6.98" height="10" rx="2" fill="#e34c26"><title>HTML 2.1%</title></rect><rect x="795.23" y="92" width="2.80" height="10" rx="2" fill="#c6538c"><title>SCSS 1.0%</title></rect><rect x="799.02" y="92" width="2.39" height="10" rx="2" fill="#a91e50"><title>EJS 0.9%</title></rect><rect x="802.41" y="92" width="0.59" height="10" rx="2" fill="#8b949e"><title>Outras 0.4%</title></rect><circle cx="421" cy="122" r="5" fill="#f1e05a"/><text x="432" y="126" font-size="12" fill="#e6edf3">JavaScript</text><text x="596" y="126" font-size="12" text-anchor="end" fill="#8b949e">45.6%</text><circle cx="615" cy="122" r="5" fill="#3178c6"/><text x="626" y="126" font-size="12" fill="#e6edf3">TypeScript</text><text x="790" y="126" font-size="12" text-anchor="end" fill="#8b949e">40.5%</text><circle cx="421" cy="144" r="5" fill="#663399"/><text x="432" y="148" font-size="12" fill="#e6edf3">CSS</text><text x="596" y="148" font-size="12" text-anchor="end" fill="#8b949e">9.6%</text><circle cx="615" cy="144" r="5" fill="#e34c26"/><text x="626" y="148" font-size="12" fill="#e6edf3">HTML</text><text x="790" y="148" font-size="12" text-anchor="end" fill="#8b949e">2.1%</text><circle cx="421" cy="166" r="5" fill="#c6538c"/><text x="432" y="170" font-size="12" fill="#e6edf3">SCSS</text><text x="596" y="170" font-size="12" text-anchor="end" fill="#8b949e">1.0%</text><circle cx="615" cy="166" r="5" fill="#a91e50"/><text x="626" y="170" font-size="12" fill="#e6edf3">EJS</text><text x="790" y="170" font-size="12" text-anchor="end" fill="#8b949e">0.9%</text><circle cx="421" cy="188" r="5" fill="#8b949e"/><text x="432" y="192" font-size="12" fill="#e6edf3">Outras</text><text x="596" y="192" font-size="12" text-anchor="end" fill="#8b949e">0.4%</text>
</svg>
